<?xml version="1.0" standalone="no"?>
<!DOCTYPE svg PUBLIC "-//W3C//DTD SVG 20010904//EN"
 "http://www.w3.org/TR/2001/REC-SVG-20010904/DTD/svg10.dtd">
<svg version="1.0" xmlns="http://www.w3.org/2000/svg"
 width="200.000000pt" height="200.000000pt" viewBox="0 0 200.000000 200.000000"
 preserveAspectRatio="xMidYMid meet">
<metadata>
Created by potrace 1.11, written by Peter Selinger 2001-2013
</metadata>
<g transform="translate(0.000000,200.000000) scale(0.100000,-0.100000)"
fill="#000000" stroke="none">
<path d="M1573 1780 c-112 -26 -224 -119 -317 -263 -32 -48 -65 -91 -75 -96
-12 -7 -50 -5 -112 5 -62 11 -119 14 -168 9 -91 -8 -268 -60 -402 -120 -56
-25 -103 -44 -104 -43 -1 2 -26 48 -55 103 -57 108 -95 165 -111 165 -18 0 -8
-30 56 -160 l66 -132 -84 -87 c-95 -98 -147 -189 -147 -255 0 -41 32 -119 84
-202 l25 -41 -26 -38 c-66 -97 -138 -304 -115 -327 7 -7 15 -9 18 -5 3 3 26
58 50 121 44 118 85 193 108 202 8 3 36 -5 62 -19 27 -13 77 -34 112 -47 34
-12 65 -27 68 -31 3 -5 -13 -61 -35 -125 -41 -116 -53 -190 -29 -182 7 3 37
67 68 144 52 131 56 139 80 135 14 -2 119 -4 233 -5 l208 -1 10 -40 c37 -143
69 -225 89 -225 17 0 10 51 -24 170 -18 63 -30 119 -25 124 4 5 68 41 141 81
l133 72 28 -75 c15 -40 39 -119 53 -175 27 -107 39 -137 54 -137 33 0 -14 226
-72 353 l-31 68 32 42 c119 158 176 263 176 325 0 41 2 43 37 52 76 21 185
134 247 257 33 65 48 172 33 239 -25 123 -95 175 -232 173 -41 -1 -89 -4 -107
-9z"/>
</g>
</svg>
